Coordinates
version=1
nRows=7
nColumns=40
inDegrees=yes

Units are S.I. units (second, meters, Newtons, ...)
Angles are in degrees.

endheader
time	pelvis_tilt	pelvis_list	pelvis_rotation	pelvis_tx	pelvis_ty	pelvis_tz	hip_flexion_r	hip_adduction_r	hip_rotation_r	knee_angle_r	knee_angle_r_beta	ankle_angle_r	subtalar_angle_r	mtp_angle_r	hip_flexion_l	hip_adduction_l	hip_rotation_l	knee_angle_l	knee_angle_l_beta	ankle_angle_l	subtalar_angle_l	mtp_angle_l	lumbar_extension	lumbar_bending	lumbar_rotation	arm_flex_r	arm_add_r	arm_rot_r	elbow_flex_r	pro_sup_r	wrist_flex_r	wrist_dev_r	arm_flex_l	arm_add_l	arm_rot_l	elbow_flex_l	pro_sup_l	wrist_flex_l	wrist_dev_l
     13.34000000	     -0.37781901	     -4.88030225	      3.33826574	      1.01370162	      0.93466686	      0.51398638	      8.44730113	      3.51480983	    -15.84452008	     15.79047821	     15.79047821	     10.26922119	      1.89948571	     -5.34672156	     29.22349398	    -13.02601902	      0.37268248	     64.18559359	     64.18559359	      7.98372490	    -18.02233467	     10.71163750	    -10.65358215	      6.22574803	      2.75999862	     19.94883911	    -18.99018861	     -6.14610948	     67.18069563	     44.93306051	      0.00000000	      0.00000000	     -1.35521100	     -8.73908631	      1.67527857	     27.96373652	     44.77319260	      0.00000000	      0.00000000
     13.35300000	     -0.64885051	     -4.79819339	      3.51847355	      1.01236870	      0.93490149	      0.51436179	      8.10669293	      3.51880406	    -16.04389981	     15.17793148	     15.17793148	     10.38763024	      2.26315308	     -5.36630059	     30.16503653	    -12.85604415	      0.20222588	     61.58991926	     61.58991926	      8.33849326	    -18.03666205	     10.90539896	    -10.50985570	      6.19099250	      3.18348886	     21.20075420	    -19.22556380	     -6.36234931	     67.70642960	     44.93175700	      0.00000000	      0.00000000	     -2.16515662	     -8.26666853	      1.75622391	     27.67154283	     44.75404880	      0.00000000	      0.00000000
     13.36600000	     -0.74259195	     -4.73705369	      3.75673226	      1.01119320	      0.93544595	      0.51464584	      7.39667225	      3.57882275	    -16.47162514	     14.23264841	     14.23264841	     10.39015200	      3.02257834	     -5.41456423	     30.68403646	    -12.60856474	      0.14017890	     58.62202947	     58.62202947	      8.55872589	    -18.11027519	     11.10948045	    -10.56835454	      6.16455525	      3.32607490	     22.54696024	    -19.14693357	     -6.66378611	     68.41062918	     44.92956348	      0.00000000	      0.00000000	     -3.05878390	     -7.89486386	      1.85769029	     27.42241030	     44.73380213	      0.00000000	      0.00000000
     13.37900000	     -0.89379227	     -4.71288735	      3.98688166	      1.01001345	      0.93570066	      0.51485366	      6.86459837	      3.64660481	    -16.86842279	     13.50527113	     13.50527113	     10.44110073	      3.66461877	     -5.55429173	     31.14076109	    -12.35293807	      0.10828383	     55.47788693	     55.47788693	      8.70205558	    -18.02745620	     11.30923264	    -10.56370960	      6.20041820	      3.57170558	     23.84975965	    -19.19703090	     -7.01564412	     69.00405405	     44.93258066	      0.00000000	      0.00000000	     -3.93478372	     -7.49569095	      1.95759101	     27.30733352	     44.71218534	      0.00000000	      0.00000000
     13.39200000	     -0.96754473	     -4.72213958	      4.24196527	      1.00885984	      0.93594998	      0.51485410	      6.19711250	      3.74352220	    -17.48979180	     12.65537628	     12.65537628	     10.39757584	      4.63436525	     -5.88932757	     31.35959631	    -12.06845011	      0.13752669	     52.12372478	     52.12372478	      8.71730618	    -17.86428808	     11.28845097	    -10.63835039	      6.30696318	      3.65247804	     25.21522062	    -19.05633292	     -7.57421202	     69.58667274	     44.94811075	      0.00000000	      0.00000000	     -4.91884538	     -7.12811136	      2.11264440	     27.43272375	     44.68799073	      0.00000000	      0.00000000
     13.40500000	     -1.13836010	     -4.68135127	      4.44522753	      1.00766969	      0.93591407	      0.51483713	      5.81190205	      3.77055616	    -17.78047056	     12.13426564	     12.13426564	     10.46663029	      5.05110868	     -6.11497912	     31.53826450	    -11.69289254	      0.16670980	     48.62770725	     48.62770725	      8.74169383	    -17.49196898	     11.40810786	    -10.62012547	      6.31538003	      3.90491328	     26.37726927	    -19.09783912	     -7.94163763	     70.02551008	     44.95756485	      0.00000000	      0.00000000	     -5.71753551	     -6.79151814	      2.23405384	     27.46839082	     44.66646603	      0.00000000	      0.00000000
     13.41800000	     -1.28480412	     -4.73902110	      4.66696195	      1.00650183	      0.93573717	      0.51460075	      5.34797752	      3.88907889	    -18.28306670	     11.48841517	     11.48841517	     10.41664722	      5.81384913	     -6.60801523	     31.61689479	    -11.35809311	      0.32504271	     45.05868006	     45.05868006	      8.54308639	    -16.98293740	     10.83911758	    -10.63895652	      6.45368238	      3.97306854	     27.67004606	    -18.88434906	     -8.56679362	     70.38191605	     44.98769772	      0.00000000	      0.00000000	     -6.65166726	     -6.50907383	      2.46241902	     27.79770390	     44.64300540	      0.00000000	      0.00000000
